#N canvas 553 108 560 649 10;
#X obj 15 27 metro 1000;
#X obj 77 74 time;
#X obj 15 4 inlet;
#X obj 388 82 date;
#X obj 77 98 pack f f f;
#X msg 322 184 \$1;
#X msg 198 205 \$2;
#X msg 35 261 \$3;
#X obj 398 127 s \$1.day;
#X obj 388 170 s \$1.year;
#X obj 35 372 mod 12;
#X obj 80 419 sel 0;
#X obj 77 120 t l l;
#X obj 152 152 t l l l;
#X obj 16 158 route 0;
#X obj 16 180 route 0;
#X obj 16 202 route 0;
#X obj 403 105 s \$1.wday;
#X obj 393 148 s \$1.mon;
#X obj 388 60 r \$1.on-new-date;
#X obj 16 224 s \$1.on-new-date;
#X obj 367 206 s \$1.hour;
#X obj 243 230 s \$1.min;
#X obj 80 441 s \$1.on-new-grid;
#X obj 198 298 s \$1.grid-min;
#X obj 198 230 t f f;
#X obj 198 252 / 5;
#X obj 119 393 s \$1.grid-sec;
#X obj 112 306 s \$1.sec;
#X obj 322 206 t f f;
#X obj 322 228 / 2;
#X obj 322 250 t f f;
#X obj 322 272 i;
#X obj 198 274 i;
#X obj 322 294 s \$1.grid-hour;
#X obj 393 228 wrap;
#X obj 393 250 * 1000;
#X obj 35 394 t f f f f;
#X obj 80 490 sel;
#X obj 98 468 r \$1.grid-min;
#X obj 35 559 sel;
#X obj 53 537 r \$1.grid-hour;
#X obj 35 581 del;
#X obj 64 559 r \$1.grid-hour-offset;
#X obj 35 603 s \$1.on-grid-hour;
#X obj 80 512 s \$1.on-grid-min;
#X obj 67 349 s \$1.on-new-min;
#X obj 67 306 t f f;
#X obj 67 328 sel 0;
#X obj 393 272 s \$1.grid-hour-offset;
#X obj 215 7 r \$1.init;
#X obj 215 29 t b b;
#X obj 15 50 t b b;
#X obj 15 72 outlet;
#X obj 35 283 t f f;
#X connect 0 0 52 0;
#X connect 1 0 4 0;
#X connect 1 1 4 1;
#X connect 1 2 4 2;
#X connect 2 0 0 0;
#X connect 3 0 9 0;
#X connect 3 1 18 0;
#X connect 3 2 8 0;
#X connect 3 3 17 0;
#X connect 4 0 12 0;
#X connect 5 0 29 0;
#X connect 6 0 25 0;
#X connect 7 0 54 0;
#X connect 10 0 37 0;
#X connect 11 0 23 0;
#X connect 12 0 14 0;
#X connect 12 1 13 0;
#X connect 13 0 7 0;
#X connect 13 1 6 0;
#X connect 13 2 5 0;
#X connect 14 0 15 0;
#X connect 15 0 16 0;
#X connect 16 0 20 0;
#X connect 19 0 3 0;
#X connect 25 0 26 0;
#X connect 25 1 22 0;
#X connect 26 0 33 0;
#X connect 29 0 30 0;
#X connect 29 1 21 0;
#X connect 30 0 31 0;
#X connect 31 0 32 0;
#X connect 31 1 35 0;
#X connect 32 0 34 0;
#X connect 33 0 24 0;
#X connect 35 0 36 0;
#X connect 36 0 49 0;
#X connect 37 0 40 0;
#X connect 37 1 38 0;
#X connect 37 2 11 0;
#X connect 37 3 27 0;
#X connect 38 0 45 0;
#X connect 39 0 38 1;
#X connect 40 0 42 0;
#X connect 41 0 40 1;
#X connect 42 0 44 0;
#X connect 43 0 42 1;
#X connect 47 0 48 0;
#X connect 47 1 28 0;
#X connect 48 0 46 0;
#X connect 50 0 51 0;
#X connect 51 0 1 0;
#X connect 51 1 3 0;
#X connect 52 0 53 0;
#X connect 52 1 1 0;
#X connect 54 0 10 0;
#X connect 54 1 47 0;
