#N canvas 426 307 236 371 10;
#X obj 29 213 * 12;
#X obj 29 236 / 7;
#X obj 29 260 int;
#X obj 29 22 inlet;
#X obj 120 23 inlet;
#X obj 29 341 outlet;
#X obj 29 318 +;
#X obj 120 268 - 1;
#X obj 50 135 / 12;
#X obj 50 164 int;
#X obj 50 105 * -7;
#X obj 29 189 +;
#X obj 50 74 - 13;
#X connect 0 0 1 0;
#X connect 1 0 2 0;
#X connect 2 0 6 0;
#X connect 3 0 11 0;
#X connect 4 0 7 0;
#X connect 4 0 12 0;
#X connect 6 0 5 0;
#X connect 7 0 6 1;
#X connect 8 0 9 0;
#X connect 9 0 11 1;
#X connect 10 0 8 0;
#X connect 11 0 0 0;
#X connect 12 0 10 0;
