#N canvas 438 294 268 262 10;
#X obj 22 11 inlet;
#X obj 22 62 t b b a;
#X obj 22 115 until;
#X obj 73 153 textfile;
#X msg 135 91 read \$1;
#X msg 72 101 rewind;
#X obj 22 33 a2l;
#X obj 119 200 send-prefix \$1.;
#X obj 73 176 route #;
#X connect 0 0 6 0;
#X connect 1 0 2 0;
#X connect 1 1 5 0;
#X connect 1 2 4 0;
#X connect 2 0 3 0;
#X connect 3 0 8 0;
#X connect 3 1 2 1;
#X connect 4 0 3 0;
#X connect 5 0 3 0;
#X connect 6 0 1 0;
#X connect 8 1 7 0;
