#N canvas 264 249 214 296 10;
#X obj 26 90 list prepend \$1;
#X obj 26 46 list split 1;
#X obj 81 248 s;
#X obj 26 138 t b a;
#X obj 26 160 l;
#X obj 26 182 route list float symbol;
#X obj 26 22 inlet;
#X msg 26 113 symbol \$1\$2;
#X connect 0 0 7 0;
#X connect 1 0 0 0;
#X connect 1 1 4 1;
#X connect 3 0 4 0;
#X connect 3 1 2 1;
#X connect 4 0 5 0;
#X connect 5 0 2 0;
#X connect 5 1 2 0;
#X connect 5 2 2 0;
#X connect 5 3 2 0;
#X connect 6 0 1 0;
#X connect 7 0 3 0;
