#N canvas 146 206 293 451 10;
#X obj 22 11 inlet;
#X obj 22 62 t b b a;
#X obj 22 115 until;
#X obj 73 153 textfile;
#X obj 105 279 makefilename;
#X msg 135 91 read \$1;
#X msg 72 101 rewind;
#X obj 73 175 list split 1;
#X obj 105 221 t b a;
#X msg 139 246 set \$1;
#X obj 73 197 sel #;
#X obj 22 33 a2l;
#X obj 105 246 f \$1;
#X obj 105 323 l;
#X obj 105 301 t b a;
#X obj 185 149 t a;
#X obj 185 171 print;
#X msg 185 126 list a 1 2;
#X obj 105 344 route list float symbol;
#X obj 157 396 s;
#X connect 0 0 11 0;
#X connect 1 0 2 0;
#X connect 1 1 6 0;
#X connect 1 2 5 0;
#X connect 2 0 3 0;
#X connect 3 0 7 0;
#X connect 3 1 2 1;
#X connect 4 0 14 0;
#X connect 5 0 3 0;
#X connect 6 0 3 0;
#X connect 7 0 10 0;
#X connect 7 1 13 1;
#X connect 8 0 12 0;
#X connect 8 1 9 0;
#X connect 9 0 4 0;
#X connect 10 1 8 0;
#X connect 11 0 1 0;
#X connect 12 0 4 0;
#X connect 13 0 18 0;
#X connect 14 0 13 0;
#X connect 14 1 19 1;
#X connect 15 0 16 0;
#X connect 17 0 15 0;
#X connect 18 0 19 0;
#X connect 18 1 19 0;
#X connect 18 2 19 0;
