#N canvas 390 88 740 581 10;
#X obj 142 248 effects/delay \$1.delay1;
#N canvas 89 219 450 505 \$1.synth 0;
#X obj 101 55 inlet;
#X obj 274 35 synth/main \$1.synth;
#X obj 101 80 makenote;
#X obj 101 132 poly 8 1;
#X obj 101 154 pack f f f;
#X obj 101 176 route 1 2 3 4 5 6 7 8;
#X obj 35 259 synth/voice \$1.synth;
#X obj 105 443 hip~ 5;
#X obj 105 465 outlet~;
#X obj 105 421 lop~ 400;
#X obj 101 102 pack f f;
#X obj 45 279 synth/voice \$1.synth;
#X obj 55 299 synth/voice \$1.synth;
#X obj 65 319 synth/voice \$1.synth;
#X obj 75 339 synth/voice \$1.synth;
#X obj 85 359 synth/voice \$1.synth;
#X obj 95 379 synth/voice \$1.synth;
#X obj 105 399 synth/voice \$1.synth;
#X connect 0 0 2 0;
#X connect 2 0 10 0;
#X connect 2 1 10 1;
#X connect 3 0 4 0;
#X connect 3 1 4 1;
#X connect 3 2 4 2;
#X connect 4 0 5 0;
#X connect 5 0 6 1;
#X connect 5 1 11 1;
#X connect 5 2 12 1;
#X connect 5 3 13 1;
#X connect 5 4 14 1;
#X connect 5 5 15 1;
#X connect 5 6 16 1;
#X connect 5 7 17 1;
#X connect 6 0 11 0;
#X connect 7 0 8 0;
#X connect 9 0 7 0;
#X connect 10 0 3 0;
#X connect 11 0 12 0;
#X connect 12 0 13 0;
#X connect 13 0 14 0;
#X connect 14 0 15 0;
#X connect 15 0 16 0;
#X connect 16 0 17 0;
#X connect 17 0 9 0;
#X restore 107 221 pd \$1.synth;
#X obj 141 326 effects/freeverb \$1.freeverb;
#X obj 163 354 effects/freeverb \$1.freeverb;
#X obj 107 300 effects/freeverb \$1.freeverb;
#X obj 106 390 +~;
#X obj 106 559 dac~;
#X obj 32 520 *~;
#X obj 155 519 *~;
#X floatatom 173 413 5 0 100 0 - - -, f 5;
#X obj 178 106 helpers/clock \$1.clock;
#N canvas 310 145 647 590 \$1.sec-arm 0;
#X obj 22 187 helpers/dia2chr;
#X obj 22 47 t b b;
#X msg 22 69 1 \, 2 \, 3 \, 4;
#X obj 22 119 +;
#X obj 110 164 r \$1.mode;
#X obj 22 524 pack f f f;
#X obj 349 32 r \$1.clock.min;
#X obj 422 80 r \$1.clock.wday;
#X obj 356 123 +;
#X obj 386 77 * 60;
#X obj 422 102 * 1440;
#X obj 356 145 +;
#X obj 356 167 mod 42;
#X obj 400 222 * -1;
#X obj 400 244 + 42;
#X obj 382 266 min;
#X obj 382 288 / 10.5;
#X obj 382 310 expr pow(2 \, $f1);
#X obj 382 332 * 50;
#X obj 74 218 r \$1.clock.grid-sec;
#X obj 74 261 -;
#X obj 224 226 r \$1.clock.grid-min;
#X obj 74 283 moses 0;
#X obj 74 305 +;
#X obj 74 327 /;
#X obj 144 330 * -1;
#X obj 144 352 +;
#X obj 144 374 /;
#X obj 74 428 +;
#X obj 74 450 max 0;
#X obj 40 93 r \$1.offset;
#X obj 22 546 outlet;
#X obj 22 141 * 2;
#X obj 22 163 +;
#X obj 51 141 r \$1.tune;
#X obj 356 189 t f f;
#X obj 386 55 r \$1.clock.hour;
#X obj 224 248 - 11;
#X obj 224 270 * -1;
#X obj 74 494 + 40;
#X obj 74 472 * 60;
#X obj 22 25 inlet;
#X connect 0 0 5 0;
#X connect 1 0 2 0;
#X connect 2 0 3 0;
#X connect 3 0 32 0;
#X connect 4 0 0 1;
#X connect 5 0 31 0;
#X connect 6 0 8 0;
#X connect 7 0 10 0;
#X connect 8 0 11 0;
#X connect 9 0 8 1;
#X connect 10 0 11 1;
#X connect 11 0 12 0;
#X connect 12 0 35 0;
#X connect 13 0 14 0;
#X connect 14 0 15 1;
#X connect 15 0 16 0;
#X connect 16 0 17 0;
#X connect 17 0 18 0;
#X connect 18 0 5 2;
#X connect 19 0 20 0;
#X connect 20 0 22 0;
#X connect 21 0 20 1;
#X connect 21 0 23 1;
#X connect 21 0 24 1;
#X connect 21 0 37 0;
#X connect 22 0 23 0;
#X connect 22 1 25 0;
#X connect 23 0 24 0;
#X connect 24 0 28 0;
#X connect 25 0 26 0;
#X connect 26 0 27 0;
#X connect 27 0 28 0;
#X connect 28 0 29 0;
#X connect 29 0 40 0;
#X connect 30 0 3 1;
#X connect 32 0 33 0;
#X connect 33 0 0 0;
#X connect 34 0 33 1;
#X connect 35 0 15 0;
#X connect 35 1 13 0;
#X connect 36 0 9 0;
#X connect 37 0 38 0;
#X connect 38 0 26 1;
#X connect 38 0 27 1;
#X connect 39 0 5 1;
#X connect 40 0 39 0;
#X connect 41 0 1 0;
#X restore 178 131 pd \$1.sec-arm;
#X obj 543 179 r \$1.clock.on-new-grid;
#X obj 577 246 +;
#X obj 577 267 mod 12;
#X obj 543 244 f;
#X obj 543 202 t b b;
#X obj 577 287 s \$1.mode;
#N canvas 96 132 571 554 \$1.transposer 0;
#X obj 57 233 + 1;
#X obj 73 302 /;
#X obj 57 257 t f f;
#X obj 57 277 + 1;
#X obj 73 332 * 440;
#X obj 73 352 ftom;
#X obj 73 373 - 69;
#X text 111 300 ------> 2/3 3/4 4/5 5/6 ...;
#X text 110 256 -----> 2 3 4 5 6 ...;
#X text 132 515 ------> 7 5 4 3 2 ...;
#X obj 25 105 random 2;
#X obj 25 132 sel 0 1;
#X obj 110 162 f;
#X obj 110 186 + 1;
#X obj 25 82 until;
#X obj 57 210 f;
#X obj 25 56 t b b;
#X obj 25 176 t b b;
#X obj 25 16 inlet;
#X obj 73 514 outlet;
#X obj 106 440 -;
#X obj 124 418 i;
#X obj 106 463 >= 0.5;
#X obj 73 490 +;
#X obj 73 395 t f f f;
#X obj 73 417 i;
#X obj 128 136 1;
#X connect 0 0 2 0;
#X connect 1 0 4 0;
#X connect 2 0 3 0;
#X connect 2 1 1 1;
#X connect 3 0 1 0;
#X connect 4 0 5 0;
#X connect 5 0 6 0;
#X connect 6 0 24 0;
#X connect 10 0 11 0;
#X connect 11 0 17 0;
#X connect 11 1 12 0;
#X connect 12 0 13 0;
#X connect 13 0 12 1;
#X connect 13 0 15 1;
#X connect 14 0 10 0;
#X connect 15 0 0 0;
#X connect 16 0 14 0;
#X connect 16 1 26 0;
#X connect 17 0 14 1;
#X connect 17 1 15 0;
#X connect 18 0 16 0;
#X connect 20 0 22 0;
#X connect 21 0 20 1;
#X connect 22 0 23 1;
#X connect 23 0 19 0;
#X connect 24 0 25 0;
#X connect 24 1 20 0;
#X connect 24 2 21 0;
#X connect 25 0 23 0;
#X connect 26 0 15 1;
#X connect 26 0 12 1;
#X restore 595 225 pd \$1.transposer;
#X obj 544 318 r \$1.clock.on-new-min;
#X obj 544 340 random 10;
#X obj 544 362 + 10;
#X obj 544 384 s \$1.offset;
#N canvas 133 459 223 271 \$1.min-arm 0;
#X obj 32 26 r \$1.clock.on-grid-min;
#X msg 32 48 1 \, 3;
#X obj 32 70 + 5;
#X obj 32 92 +;
#X obj 73 70 r \$1.offset;
#X obj 32 182 pack f 100 200;
#X obj 32 159 helpers/dia2chr;
#X obj 120 136 r \$1.mode;
#X obj 32 204 outlet;
#X obj 32 114 * 2;
#X obj 32 136 +;
#X obj 73 110 r \$1.tune;
#X connect 0 0 1 0;
#X connect 1 0 2 0;
#X connect 2 0 3 0;
#X connect 3 0 9 0;
#X connect 4 0 3 1;
#X connect 5 0 8 0;
#X connect 6 0 5 0;
#X connect 7 0 6 1;
#X connect 9 0 10 0;
#X connect 10 0 6 0;
#X connect 11 0 10 1;
#X restore 193 154 pd \$1.min-arm;
#X obj 545 408 r \$1.clock.on-new-grid;
#X obj 545 430 random 4;
#X obj 545 452 - 2;
#X obj 545 475 s \$1.tune;
#N canvas 539 441 227 246 \$1.hour-arm 0;
#X obj 17 13 r \$1.clock.on-grid-hour;
#X msg 17 35 5;
#X obj 17 57 + 5;
#X obj 17 101 * 2;
#X obj 17 123 +;
#X obj 17 79 +;
#X obj 46 57 r \$1.offset;
#X obj 47 101 r \$1.tune;
#X obj 17 145 helpers/dia2chr;
#X obj 17 167 pack f 110 1000;
#X obj 17 189 outlet;
#X obj 109 124 r \$1.mode;
#X connect 0 0 1 0;
#X connect 1 0 2 0;
#X connect 2 0 5 0;
#X connect 3 0 4 0;
#X connect 4 0 8 0;
#X connect 5 0 3 0;
#X connect 6 0 5 1;
#X connect 7 0 4 1;
#X connect 8 0 9 0;
#X connect 9 0 10 0;
#X connect 11 0 8 1;
#X restore 212 176 pd \$1.hour-arm;
#N canvas 191 343 250 387 \$1.wday-teller 0;
#X obj 26 12 r \$1.clock.on-new-grid;
#X obj 54 34 r \$1.clock.min;
#X obj 93 80 r \$1.clock.wday;
#X obj 26 126 +;
#X obj 56 80 * 60;
#X obj 76 107 * 1440;
#X obj 26 148 +;
#X obj 26 170 mod 21;
#X obj 26 192 sel 0;
#X obj 26 34 f;
#X obj 26 214 f;
#X obj 26 236 t f b;
#X obj 26 308 pack f f;
#X obj 79 258 random 6;
#X obj 79 280 + 1;
#X obj 26 330 outlet;
#X obj 56 58 r \$1.clock.hour;
#X obj 128 122 inlet;
#X obj 128 144 b;
#X connect 0 0 9 0;
#X connect 1 0 9 1;
#X connect 2 0 5 0;
#X connect 2 0 10 1;
#X connect 3 0 6 0;
#X connect 4 0 3 1;
#X connect 5 0 6 1;
#X connect 6 0 7 0;
#X connect 7 0 8 0;
#X connect 8 0 10 0;
#X connect 9 0 3 0;
#X connect 10 0 11 0;
#X connect 11 0 12 0;
#X connect 11 1 13 0;
#X connect 12 0 15 0;
#X connect 13 0 14 0;
#X connect 14 0 12 1;
#X connect 16 0 4 0;
#X connect 17 0 18 0;
#X connect 18 0 10 0;
#X restore 30 106 pd \$1.wday-teller;
#X obj 30 131 wday/main;
#X obj 384 229 r \$1.clock.sec;
#X obj 384 277 -;
#X obj 402 251 r \$1.clock.min;
#X obj 384 299 mod 60;
#X obj 384 321 t f f;
#X obj 384 386 min;
#X obj 416 345 * -1;
#X obj 416 367 + 60;
#X obj 384 408 / 30;
#X obj 384 452 pack f 1000;
#X obj 31 439 +~;
#X obj 90 438 +~;
#X obj 31 467 effects/pan \$1.pan;
#X obj 384 154 / 120;
#X obj 384 177 + 0.125;
#X obj 384 131 r \$1.clock.sec;
#X obj 384 199 s \$1.pan.d;
#X obj 173 455 pack f 1000;
#X obj 384 496 s \$1.pan.hip;
#X obj 545 14 r \$1.clock.min;
#X obj 545 36 / 60;
#X obj 545 58 * 1000;
#X obj 545 80 +;
#X obj 545 102 mod 700;
#X obj 545 145 s \$1.delay1.offset;
#X obj 384 37 / 24;
#X obj 384 59 * 700;
#X obj 384 103 s \$1.delay2.offset;
#X obj 545 124 + 300;
#X obj 384 81 + 300;
#X obj 173 432 dbtorms;
#X obj 162 274 effects/delay \$1.delay2;
#X obj 384 15 r \$1.clock.hour;
#X obj 173 391 r \$1.vol;
#X obj 581 36 r \$1.clock.hour;
#X obj 384 474 line;
#X obj 384 430 * 1970;
#X obj 30 11 r \$1.init;
#X obj 30 33 symbol \$1;
#X msg 30 55 \; \$1.clock.init bang \; \$1.synth.init bang;
#X obj 610 430 r \$1.init;
#X obj 615 340 r \$1.init;
#X obj 589 201 r \$1.init;
#X obj 173 477 line~;
#X obj 178 83 inlet;
#X obj 273 466 r \$1.listen;
#X obj 273 510 netreceive;
#X msg 273 488 listen \$1;
#X obj 273 532 helpers/send-prefix \$1.;
#X obj 546 511 r \$1.quit;
#X msg 546 533 \; pd quit;
#X connect 0 0 2 0;
#X connect 1 0 0 0;
#X connect 1 0 4 0;
#X connect 1 0 62 0;
#X connect 2 0 5 1;
#X connect 3 0 42 1;
#X connect 4 0 5 0;
#X connect 5 0 41 1;
#X connect 7 0 6 0;
#X connect 8 0 6 1;
#X connect 9 0 61 0;
#X connect 10 0 11 0;
#X connect 11 0 1 0;
#X connect 12 0 16 0;
#X connect 13 0 14 0;
#X connect 14 0 15 1;
#X connect 14 0 17 0;
#X connect 15 0 13 0;
#X connect 16 0 15 0;
#X connect 16 1 18 0;
#X connect 18 0 13 1;
#X connect 19 0 20 0;
#X connect 20 0 21 0;
#X connect 21 0 22 0;
#X connect 23 0 1 0;
#X connect 24 0 25 0;
#X connect 25 0 26 0;
#X connect 26 0 27 0;
#X connect 28 0 1 0;
#X connect 29 0 30 0;
#X connect 30 0 41 0;
#X connect 30 1 42 0;
#X connect 31 0 32 0;
#X connect 32 0 34 0;
#X connect 33 0 32 1;
#X connect 34 0 35 0;
#X connect 35 0 36 0;
#X connect 35 1 37 0;
#X connect 36 0 39 0;
#X connect 37 0 38 0;
#X connect 38 0 36 1;
#X connect 39 0 67 0;
#X connect 40 0 66 0;
#X connect 41 0 43 0;
#X connect 42 0 43 1;
#X connect 43 0 7 0;
#X connect 43 1 8 0;
#X connect 44 0 45 0;
#X connect 45 0 47 0;
#X connect 46 0 44 0;
#X connect 48 0 74 0;
#X connect 50 0 51 0;
#X connect 51 0 52 0;
#X connect 52 0 53 0;
#X connect 53 0 54 0;
#X connect 54 0 59 0;
#X connect 56 0 57 0;
#X connect 57 0 60 0;
#X connect 59 0 55 0;
#X connect 60 0 58 0;
#X connect 61 0 48 0;
#X connect 62 0 3 0;
#X connect 63 0 56 0;
#X connect 64 0 9 0;
#X connect 65 0 53 1;
#X connect 66 0 49 0;
#X connect 67 0 40 0;
#X connect 68 0 69 0;
#X connect 69 0 70 0;
#X connect 71 0 25 0;
#X connect 72 0 20 0;
#X connect 73 0 16 0;
#X connect 74 0 7 1;
#X connect 74 0 8 1;
#X connect 75 0 10 0;
#X connect 76 0 78 0;
#X connect 77 0 79 0;
#X connect 78 0 77 0;
#X connect 80 0 81 0;
