#N canvas 366 119 918 581 10;
#X declare -lib zexy;
#X obj 132 208 effects/delay \$0.delay1;
#N canvas 664 204 450 505 \$0.synth 0;
#X obj 101 55 inlet;
#X obj 274 35 synth/main \$0.synth;
#X obj 101 80 makenote;
#X obj 101 132 poly 8 1;
#X obj 101 154 pack f f f;
#X obj 101 176 route 1 2 3 4 5 6 7 8;
#X obj 35 259 synth/voice \$0.synth;
#X obj 105 443 hip~ 5;
#X obj 105 465 outlet~;
#X obj 105 421 lop~ 400;
#X obj 101 102 pack f f;
#X obj 45 279 synth/voice \$0.synth;
#X obj 55 299 synth/voice \$0.synth;
#X obj 65 319 synth/voice \$0.synth;
#X obj 75 339 synth/voice \$0.synth;
#X obj 85 359 synth/voice \$0.synth;
#X obj 95 379 synth/voice \$0.synth;
#X obj 105 399 synth/voice \$0.synth;
#X connect 0 0 2 0;
#X connect 2 0 10 0;
#X connect 2 1 10 1;
#X connect 3 0 4 0;
#X connect 3 1 4 1;
#X connect 3 2 4 2;
#X connect 4 0 5 0;
#X connect 5 0 6 1;
#X connect 5 1 11 1;
#X connect 5 2 12 1;
#X connect 5 3 13 1;
#X connect 5 4 14 1;
#X connect 5 5 15 1;
#X connect 5 6 16 1;
#X connect 5 7 17 1;
#X connect 6 0 11 0;
#X connect 7 0 8 0;
#X connect 9 0 7 0;
#X connect 10 0 3 0;
#X connect 11 0 12 0;
#X connect 12 0 13 0;
#X connect 13 0 14 0;
#X connect 14 0 15 0;
#X connect 15 0 16 0;
#X connect 16 0 17 0;
#X connect 17 0 9 0;
#X restore 97 181 pd \$0.synth;
#X obj 131 286 effects/freeverb \$0.freeverb;
#X obj 153 314 effects/freeverb \$0.freeverb;
#X obj 97 260 effects/freeverb \$0.freeverb;
#X obj 96 350 +~;
#X obj 96 529 dac~;
#X obj 22 490 *~;
#X obj 145 489 *~;
#X obj 19 9 declare -lib zexy;
#X floatatom 163 393 5 0 100 0 - - -, f 5;
#X obj 548 239 parts/clock \$0.clock;
#X obj 548 220 tgl 15 0 empty empty empty 17 7 0 10 -262144 -1 -1 1
1;
#N canvas 306 125 647 590 \$0.sec-arm 0;
#X obj 22 187 parts/dia2chr;
#X obj 22 25 r \$0.clock.on-grid-sec;
#X obj 22 47 t b b;
#X msg 22 69 1 \, 2 \, 3 \, 4;
#X obj 22 119 +;
#X obj 110 164 r \$0.mode;
#X obj 22 524 pack f f f;
#X obj 349 32 r \$0.clock.min;
#X obj 422 80 r \$0.clock.wday;
#X obj 356 123 +;
#X obj 386 77 * 60;
#X obj 422 102 * 1440;
#X obj 356 145 +;
#X obj 356 167 mod 42;
#X obj 400 222 * -1;
#X obj 400 244 + 42;
#X obj 382 266 min;
#X obj 382 288 / 10.5;
#X obj 382 310 expr pow(2 \, $f1);
#X obj 382 332 * 50;
#X obj 74 218 r \$0.clock.grid-sec;
#X obj 74 261 -;
#X obj 224 226 r \$0.clock.grid-min;
#X obj 74 283 moses 0;
#X obj 74 305 +;
#X obj 74 327 /;
#X obj 144 330 * -1;
#X obj 144 352 +;
#X obj 144 374 /;
#X obj 74 428 +;
#X obj 74 450 max 0;
#X obj 40 93 r \$0.offset;
#X obj 22 546 outlet;
#X obj 22 141 * 2;
#X obj 22 163 +;
#X obj 51 141 r \$0.tune;
#X obj 356 189 t f f;
#X obj 386 55 r \$0.clock.hour;
#X obj 224 248 - 11;
#X obj 224 270 * -1;
#X obj 74 494 + 40;
#X obj 74 472 * 60;
#X connect 0 0 6 0;
#X connect 1 0 2 0;
#X connect 2 0 3 0;
#X connect 3 0 4 0;
#X connect 4 0 33 0;
#X connect 5 0 0 1;
#X connect 6 0 32 0;
#X connect 7 0 9 0;
#X connect 8 0 11 0;
#X connect 9 0 12 0;
#X connect 10 0 9 1;
#X connect 11 0 12 1;
#X connect 12 0 13 0;
#X connect 13 0 36 0;
#X connect 14 0 15 0;
#X connect 15 0 16 1;
#X connect 16 0 17 0;
#X connect 17 0 18 0;
#X connect 18 0 19 0;
#X connect 19 0 6 2;
#X connect 20 0 21 0;
#X connect 21 0 23 0;
#X connect 22 0 21 1;
#X connect 22 0 24 1;
#X connect 22 0 25 1;
#X connect 22 0 38 0;
#X connect 23 0 24 0;
#X connect 23 1 26 0;
#X connect 24 0 25 0;
#X connect 25 0 29 0;
#X connect 26 0 27 0;
#X connect 27 0 28 0;
#X connect 28 0 29 0;
#X connect 29 0 30 0;
#X connect 30 0 41 0;
#X connect 31 0 4 1;
#X connect 33 0 34 0;
#X connect 34 0 0 0;
#X connect 35 0 34 1;
#X connect 36 0 16 0;
#X connect 36 1 14 0;
#X connect 37 0 10 0;
#X connect 38 0 39 0;
#X connect 39 0 27 1;
#X connect 39 0 28 1;
#X connect 40 0 6 1;
#X connect 41 0 40 0;
#X restore 97 103 pd \$0.sec-arm;
#X obj 707 201 r \$0.clock.on-new-grid;
#X obj 741 268 +;
#X obj 741 289 mod 12;
#X obj 707 266 f;
#X obj 707 224 t b b;
#X obj 741 309 s \$0.mode;
#N canvas 96 132 571 554 \$0.transposer 0;
#X obj 57 233 + 1;
#X obj 73 302 /;
#X obj 57 257 t f f;
#X obj 57 277 + 1;
#X obj 73 332 * 440;
#X obj 73 352 ftom;
#X obj 73 373 - 69;
#X text 111 300 ------> 2/3 3/4 4/5 5/6 ...;
#X text 110 256 -----> 2 3 4 5 6 ...;
#X text 132 515 ------> 7 5 4 3 2 ...;
#X obj 25 105 random 2;
#X obj 25 132 sel 0 1;
#X obj 110 162 f;
#X obj 110 186 + 1;
#X obj 25 82 until;
#X obj 57 210 f;
#X obj 25 56 t b b;
#X obj 25 176 t b b;
#X obj 25 16 inlet;
#X obj 73 514 outlet;
#X obj 106 440 -;
#X obj 124 418 i;
#X obj 106 463 >= 0.5;
#X obj 73 490 +;
#X obj 73 395 t f f f;
#X obj 73 417 i;
#X obj 128 136 1;
#X connect 0 0 2 0;
#X connect 1 0 4 0;
#X connect 2 0 3 0;
#X connect 2 1 1 1;
#X connect 3 0 1 0;
#X connect 4 0 5 0;
#X connect 5 0 6 0;
#X connect 6 0 24 0;
#X connect 10 0 11 0;
#X connect 11 0 17 0;
#X connect 11 1 12 0;
#X connect 12 0 13 0;
#X connect 13 0 12 1;
#X connect 13 0 15 1;
#X connect 14 0 10 0;
#X connect 15 0 0 0;
#X connect 16 0 14 0;
#X connect 16 1 26 0;
#X connect 17 0 14 1;
#X connect 17 1 15 0;
#X connect 18 0 16 0;
#X connect 20 0 22 0;
#X connect 21 0 20 1;
#X connect 22 0 23 1;
#X connect 23 0 19 0;
#X connect 24 0 25 0;
#X connect 24 1 20 0;
#X connect 24 2 21 0;
#X connect 25 0 23 0;
#X connect 26 0 15 1;
#X connect 26 0 12 1;
#X restore 759 247 pd \$0.transposer;
#X obj 708 340 r \$0.clock.on-new-min;
#X obj 708 362 random 10;
#X obj 708 384 + 10;
#X obj 708 406 s \$0.offset;
#N canvas 130 381 223 271 \$0.min-arm 0;
#X obj 32 26 r \$0.clock.on-grid-min;
#X msg 32 48 1 \, 3;
#X obj 32 70 + 5;
#X obj 32 92 +;
#X obj 73 70 r \$0.offset;
#X obj 32 182 pack f 100 200;
#X obj 32 159 parts/dia2chr;
#X obj 120 136 r \$0.mode;
#X obj 32 204 outlet;
#X obj 32 114 * 2;
#X obj 32 136 +;
#X obj 73 110 r \$0.tune;
#X connect 0 0 1 0;
#X connect 1 0 2 0;
#X connect 2 0 3 0;
#X connect 3 0 9 0;
#X connect 4 0 3 1;
#X connect 5 0 8 0;
#X connect 6 0 5 0;
#X connect 7 0 6 1;
#X connect 9 0 10 0;
#X connect 10 0 6 0;
#X connect 11 0 10 1;
#X restore 112 126 pd \$0.min-arm;
#X obj 709 430 r \$0.clock.on-new-grid;
#X obj 709 452 random 4;
#X obj 709 474 - 2;
#X obj 709 497 s \$0.tune;
#N canvas 536 348 227 246 \$0.hour-arm 0;
#X obj 17 13 r \$0.clock.on-grid-hour;
#X msg 17 35 5;
#X obj 17 57 + 5;
#X obj 17 101 * 2;
#X obj 17 123 +;
#X obj 17 79 +;
#X obj 46 57 r \$0.offset;
#X obj 47 101 r \$0.tune;
#X obj 17 145 parts/dia2chr;
#X obj 17 167 pack f 110 1000;
#X obj 17 189 outlet;
#X obj 109 124 r \$0.mode;
#X connect 0 0 1 0;
#X connect 1 0 2 0;
#X connect 2 0 5 0;
#X connect 3 0 4 0;
#X connect 4 0 8 0;
#X connect 5 0 3 0;
#X connect 6 0 5 1;
#X connect 7 0 4 1;
#X connect 8 0 9 0;
#X connect 9 0 10 0;
#X connect 11 0 8 1;
#X restore 131 148 pd \$0.hour-arm;
#N canvas 250 343 250 387 \$0.wday-teller 0;
#X obj 26 12 r \$0.clock.on-new-grid;
#X obj 54 34 r \$0.clock.min;
#X obj 93 80 r \$0.clock.wday;
#X obj 26 126 +;
#X obj 56 80 * 60;
#X obj 76 107 * 1440;
#X obj 26 148 +;
#X obj 26 170 mod 21;
#X obj 26 192 sel 0;
#X obj 26 34 f;
#X obj 26 214 f;
#X obj 26 236 t f b;
#X obj 26 308 pack f f;
#X obj 79 258 random 6;
#X obj 79 280 + 1;
#X obj 26 330 outlet;
#X obj 56 58 r \$0.clock.hour;
#X obj 128 122 inlet;
#X obj 128 144 b;
#X connect 0 0 9 0;
#X connect 1 0 9 1;
#X connect 2 0 5 0;
#X connect 2 0 10 1;
#X connect 3 0 6 0;
#X connect 4 0 3 1;
#X connect 5 0 6 1;
#X connect 6 0 7 0;
#X connect 7 0 8 0;
#X connect 8 0 10 0;
#X connect 9 0 3 0;
#X connect 10 0 11 0;
#X connect 11 0 12 0;
#X connect 11 1 13 0;
#X connect 12 0 15 0;
#X connect 13 0 14 0;
#X connect 14 0 12 1;
#X connect 16 0 4 0;
#X connect 17 0 18 0;
#X connect 18 0 10 0;
#X restore 20 66 pd \$0.wday-teller;
#X obj 20 91 wday/main;
#X obj 548 266 r \$0.clock.sec;
#X obj 548 314 -;
#X obj 566 288 r \$0.clock.min;
#X obj 548 336 mod 60;
#X obj 548 358 t f f;
#X obj 548 423 min;
#X obj 580 382 * -1;
#X obj 580 404 + 60;
#X obj 548 445 / 30;
#X obj 548 489 pack f 1000;
#X obj 21 419 +~;
#X obj 80 418 +~;
#X obj 21 447 effects/pan \$0.pan;
#X obj 362 153 / 120;
#X obj 362 176 + 0.125;
#X obj 362 130 r \$0.clock.sec;
#X obj 362 198 s \$0.pan.d;
#X obj 163 435 pack f 1000;
#X obj 548 533 s \$0.pan.hip;
#X obj 545 14 r \$0.clock.min;
#X obj 545 36 / 60;
#X obj 545 58 * 1000;
#X obj 545 80 +;
#X obj 545 102 mod 700;
#X obj 545 145 s \$0.delay1.offset;
#X obj 364 37 / 24;
#X obj 364 59 * 700;
#X obj 364 103 s \$0.delay2.offset;
#X obj 545 124 + 300;
#X obj 364 81 + 300;
#X obj 163 412 dbtorms;
#X obj 163 457 line;
#X obj 152 234 effects/delay \$0.delay2;
#X obj 364 15 r \$0.clock.hour;
#X obj 548 176 r \$0.start-clock;
#X obj 163 371 r \$0.vol;
#X obj 735 81 parts/load-config \$0;
#X msg 735 59 ../config.txt;
#X obj 581 36 r \$0.clock.hour;
#X obj 703 12 loadbang;
#X obj 703 34 t b b;
#X obj 703 82 \$0;
#X obj 548 198 del 1000;
#X msg 703 105 \; \$1.clock.on-new-date bang \; \$1.clock.on-new-min
bang \; \$1.clock.on-new-grid bang \; pd dsp 1 \; \$1.start-clock bang
;
#X obj 548 511 line;
#X obj 548 467 * 1970;
#X obj 20 43 bng 15 250 50 0 empty empty empty 17 7 0 10 -262144 -1
-1;
#X connect 0 0 2 0;
#X connect 1 0 0 0;
#X connect 1 0 4 0;
#X connect 1 0 65 0;
#X connect 2 0 5 1;
#X connect 3 0 44 1;
#X connect 4 0 5 0;
#X connect 5 0 43 1;
#X connect 7 0 6 0;
#X connect 8 0 6 1;
#X connect 10 0 63 0;
#X connect 12 0 11 0;
#X connect 13 0 1 0;
#X connect 14 0 18 0;
#X connect 15 0 16 0;
#X connect 16 0 17 1;
#X connect 16 0 19 0;
#X connect 17 0 15 0;
#X connect 18 0 17 0;
#X connect 18 1 20 0;
#X connect 20 0 15 1;
#X connect 21 0 22 0;
#X connect 22 0 23 0;
#X connect 23 0 24 0;
#X connect 25 0 1 0;
#X connect 26 0 27 0;
#X connect 27 0 28 0;
#X connect 28 0 29 0;
#X connect 30 0 1 0;
#X connect 31 0 32 0;
#X connect 32 0 43 0;
#X connect 32 1 44 0;
#X connect 33 0 34 0;
#X connect 34 0 36 0;
#X connect 35 0 34 1;
#X connect 36 0 37 0;
#X connect 37 0 38 0;
#X connect 37 1 39 0;
#X connect 38 0 41 0;
#X connect 39 0 40 0;
#X connect 40 0 38 1;
#X connect 41 0 78 0;
#X connect 42 0 77 0;
#X connect 43 0 45 0;
#X connect 44 0 45 1;
#X connect 45 0 7 0;
#X connect 45 1 8 0;
#X connect 46 0 47 0;
#X connect 47 0 49 0;
#X connect 48 0 46 0;
#X connect 50 0 64 0;
#X connect 52 0 53 0;
#X connect 53 0 54 0;
#X connect 54 0 55 0;
#X connect 55 0 56 0;
#X connect 56 0 61 0;
#X connect 58 0 59 0;
#X connect 59 0 62 0;
#X connect 61 0 57 0;
#X connect 62 0 60 0;
#X connect 63 0 50 0;
#X connect 64 0 7 1;
#X connect 64 0 8 1;
#X connect 65 0 3 0;
#X connect 66 0 58 0;
#X connect 67 0 75 0;
#X connect 68 0 10 0;
#X connect 70 0 69 0;
#X connect 71 0 55 1;
#X connect 72 0 73 0;
#X connect 73 0 74 0;
#X connect 73 1 70 0;
#X connect 74 0 76 0;
#X connect 75 0 12 0;
#X connect 77 0 51 0;
#X connect 78 0 42 0;
#X connect 79 0 31 0;
