#N canvas 318 293 450 300 10;
#X obj 38 33 t b a;
#X msg 38 141 0 0 \, 44100 2000;
#X obj 38 163 line~;
#X obj 38 185 tabread4~ \$0.sample;
#X obj 38 207 *~ 0.5;
#X obj 38 229 rev3~ 90 90 3000 100;
#X obj 38 251 outlet~;
#X obj 94 251 outlet~;
#X obj 38 11 inlet;
#X msg 70 84 read samples/\$1-\$2.wav \$3.sample;
#X obj 277 18 table \$0.sample 44100;
#X obj 70 61 pack f f \$0;
#X obj 70 106 soundfiler;
#X connect 0 0 1 0;
#X connect 0 1 11 0;
#X connect 1 0 2 0;
#X connect 2 0 3 0;
#X connect 3 0 4 0;
#X connect 4 0 5 0;
#X connect 4 0 5 1;
#X connect 5 0 6 0;
#X connect 5 1 7 0;
#X connect 8 0 0 0;
#X connect 9 0 12 0;
#X connect 11 0 9 0;
