#N canvas 366 132 334 259 10;
#X obj 22 65 line~;
#X obj 156 58 inlet~;
#X obj 20 192 outlet~;
#X obj 21 134 *~ 0.4;
#X obj 22 21 r \$1.offset;
#X obj 72 134 r \$1.feedback;
#X obj 156 188 delwrite~ \$0.dl 5000;
#X obj 21 92 vd~ \$0.dl;
#X obj 22 43 pack f 100;
#X connect 0 0 7 0;
#X connect 1 0 6 0;
#X connect 3 0 2 0;
#X connect 3 0 6 0;
#X connect 4 0 8 0;
#X connect 5 0 3 1;
#X connect 7 0 3 0;
#X connect 8 0 0 0;
