#N canvas 262 169 450 408 10;
#X obj 65 173 inlet~;
#X obj 230 174 inlet~;
#X obj 30 227 *~;
#X obj 84 226 *~;
#X obj 203 225 *~;
#X obj 257 224 *~;
#X obj 145 66 pack f 1000;
#X obj 84 356 hip~;
#X obj 173 356 hip~;
#X obj 145 89 line;
#X obj 188 119 - 0.25;
#X obj 145 142 cos;
#X obj 187 142 cos;
#X obj 284 175 + 0.5;
#X obj 284 199 cos;
#X obj 84 378 outlet~;
#X obj 173 378 outlet~;
#X obj 145 41 r \$1.d;
#X obj 312 226 r \$1.hip;
#X connect 0 0 2 0;
#X connect 0 0 3 0;
#X connect 1 0 4 0;
#X connect 1 0 5 0;
#X connect 2 0 7 0;
#X connect 3 0 8 0;
#X connect 4 0 7 0;
#X connect 5 0 8 0;
#X connect 6 0 9 0;
#X connect 7 0 15 0;
#X connect 8 0 16 0;
#X connect 9 0 10 0;
#X connect 9 0 11 0;
#X connect 10 0 12 0;
#X connect 10 0 13 0;
#X connect 11 0 2 1;
#X connect 11 0 4 1;
#X connect 12 0 3 1;
#X connect 13 0 14 0;
#X connect 14 0 5 1;
#X connect 17 0 6 0;
#X connect 18 0 7 1;
#X connect 18 0 8 1;
