#N canvas 509 202 386 410 10;
#X obj 24 20 loadbang;
#X obj 24 316 soundfiler;
#X obj 141 143 until;
#X obj 277 160 > 127;
#X obj 277 182 sel 1;
#X obj 141 168 f;
#X obj 220 160 + 1;
#X obj 220 182 t f f;
#X obj 141 93 t b b;
#X obj 173 115 0;
#X obj 141 190 t f f f;
#X obj 141 216 expr pow(2 \, (110 - $f1) / 12);
#X obj 141 242 * 6000;
#X obj 24 42 t b b;
#X msg 24 294 read decay.wav \$1.decay;
#X obj 141 264 tabwrite \$1.pitch->decay;
#X obj 23 343 table \$1.decay 44100;
#X obj 23 367 table \$1.pitch->decay 127;
#X obj 24 271 symbol \$1;
#X connect 0 0 13 0;
#X connect 2 0 5 0;
#X connect 3 0 4 0;
#X connect 4 0 2 1;
#X connect 5 0 10 0;
#X connect 6 0 7 0;
#X connect 7 0 5 1;
#X connect 7 1 3 0;
#X connect 8 0 2 0;
#X connect 8 1 9 0;
#X connect 9 0 5 1;
#X connect 10 0 11 0;
#X connect 10 1 15 1;
#X connect 10 2 6 0;
#X connect 11 0 12 0;
#X connect 12 0 15 0;
#X connect 13 0 18 0;
#X connect 13 1 8 0;
#X connect 14 0 1 0;
#X connect 18 0 14 0;
