#N canvas 56 106 1204 546 10;
#X obj 30 15 inlet~;
#X obj 30 1057 +~;
#X obj 30 1079 outlet~;
#X obj 149 428 +~;
#X obj 149 450 osc~;
#X obj 149 707 *~;
#X obj 149 753 tabread4~ \$1.decay;
#X obj 149 994 *~;
#X text 176 561 waveshaping;
#X text 146 16 fm;
#X obj 149 472 *~ 0.5;
#X obj 149 494 +~ 0.5;
#X obj 167 681 +~ 0.5;
#X text 491 7 input;
#X obj 492 30 inlet;
#X obj 492 52 t l l;
#X obj 725 12 unpack f f;
#X obj 366 486 pow 2;
#X obj 148 109 osc~;
#X obj 148 326 *~;
#X obj 725 195 s \$0.pitch;
#X obj 779 103 mtof;
#X obj 779 125 s \$0.frequency;
#X obj 849 58 s \$0.velocity;
#X obj 366 508 s \$0.amplitude;
#X obj 167 971 r \$0.amplitude;
#X obj 167 404 r \$0.frequency;
#X obj 188 707 r \$1.waveshape-gain;
#X obj 148 38 r \$0.frequency;
#X obj 166 134 r \$0.noteon;
#X obj 166 156 t b b;
#X obj 166 257 line;
#X obj 279 154 max 10;
#X obj 166 203 del 10;
#X obj 219 203 pack 1 10;
#X obj 149 945 *~;
#X obj 817 80 / 127;
#X obj 817 102 s \$0.nvelocity;
#X obj 180 61 r \$1.fm-ratio;
#X obj 279 132 r \$1.fm-attack;
#X obj 166 278 pow 4;
#X obj 166 232 pack 0 2000;
#X obj 211 301 r \$1.fm-amplitude;
#X obj 251 232 r \$1.fm-decay;
#X obj 478 851 line~;
#X obj 455 600 r \$0.noteon;
#X text 169 382 source;
#X obj 645 581 r \$0.noteoff;
#X obj 747 784 r \$1.release;
#X obj 478 777 pack 44100 f;
#X obj 569 777 r \$0.decay;
#X obj 166 593 r \$0.amplitude;
#X obj 166 658 *~;
#X obj 166 637 + 1;
#X obj 523 721 r \$1.attack;
#X obj 725 84 t f f f;
#X obj 748 149 tabread \$1.pitch->decay;
#X obj 748 171 s \$0.decay;
#X obj 478 874 tabread4~ \$1.decay;
#X obj 148 87 * 10;
#X obj 166 301 * 700;
#X obj 166 615 * 5;
#X obj 645 808 pack 44100 1500;
#X msg 559 679 stop;
#X obj 645 604 t b b;
#X obj 455 622 t b b b;
#X msg 492 78 \$2;
#X obj 597 162 r \$1.pedal;
#X obj 652 262 f;
#X obj 492 100 != 0;
#X obj 495 178 sel 1 0;
#X obj 629 206 sel 1 0;
#X obj 652 284 sel 0;
#X obj 538 230 f;
#X obj 492 122 t f f f;
#X obj 538 300 sel 1;
#X obj 597 184 t f f;
#X obj 597 251 == 0;
#X obj 538 252 == 1;
#X obj 538 275 && 1;
#X obj 538 389 s \$0.noteon;
#X obj 561 368 s \$0.noteoff;
#X obj 489 250 1;
#X obj 538 322 0;
#X obj 652 306 0;
#X obj 538 347 sel 1 0;
#X obj 366 441 r \$0.noteon;
#X obj 366 463 f;
#X obj 396 463 r \$0.nvelocity;
#X obj 817 36 t f f;
#X obj 449 722 pack 0 50;
#X obj 478 755 del 50;
#X obj 149 731 *~ 884;
#X connect 0 0 1 0;
#X connect 1 0 2 0;
#X connect 3 0 4 0;
#X connect 4 0 10 0;
#X connect 5 0 92 0;
#X connect 6 0 35 0;
#X connect 7 0 1 1;
#X connect 10 0 11 0;
#X connect 11 0 5 0;
#X connect 12 0 5 1;
#X connect 14 0 15 0;
#X connect 15 0 66 0;
#X connect 15 1 16 0;
#X connect 16 0 55 0;
#X connect 16 1 89 0;
#X connect 17 0 24 0;
#X connect 18 0 19 0;
#X connect 19 0 3 0;
#X connect 21 0 22 0;
#X connect 25 0 7 1;
#X connect 26 0 3 1;
#X connect 27 0 92 1;
#X connect 28 0 59 0;
#X connect 29 0 30 0;
#X connect 30 0 33 0;
#X connect 30 1 34 0;
#X connect 31 0 40 0;
#X connect 32 0 33 1;
#X connect 32 0 34 1;
#X connect 33 0 41 0;
#X connect 34 0 31 0;
#X connect 35 0 7 0;
#X connect 36 0 37 0;
#X connect 38 0 59 1;
#X connect 39 0 32 0;
#X connect 40 0 60 0;
#X connect 41 0 31 0;
#X connect 42 0 60 1;
#X connect 43 0 41 1;
#X connect 44 0 58 0;
#X connect 45 0 65 0;
#X connect 47 0 64 0;
#X connect 48 0 62 1;
#X connect 49 0 44 0;
#X connect 50 0 49 1;
#X connect 51 0 61 0;
#X connect 52 0 12 0;
#X connect 53 0 52 0;
#X connect 54 0 90 1;
#X connect 54 0 91 1;
#X connect 55 0 20 0;
#X connect 55 1 56 0;
#X connect 55 2 21 0;
#X connect 56 0 57 0;
#X connect 58 0 35 1;
#X connect 58 0 52 1;
#X connect 59 0 18 0;
#X connect 60 0 19 1;
#X connect 61 0 53 0;
#X connect 62 0 44 0;
#X connect 63 0 91 0;
#X connect 64 0 62 0;
#X connect 64 1 63 0;
#X connect 65 0 90 0;
#X connect 65 1 91 0;
#X connect 65 2 63 0;
#X connect 66 0 69 0;
#X connect 67 0 76 0;
#X connect 68 0 72 0;
#X connect 69 0 74 0;
#X connect 70 0 82 0;
#X connect 70 1 73 0;
#X connect 71 1 68 0;
#X connect 72 0 84 0;
#X connect 73 0 78 0;
#X connect 74 0 73 1;
#X connect 74 1 68 1;
#X connect 74 2 70 0;
#X connect 75 0 83 0;
#X connect 76 0 77 0;
#X connect 76 1 71 0;
#X connect 77 0 79 1;
#X connect 78 0 79 0;
#X connect 79 0 75 0;
#X connect 82 0 85 0;
#X connect 83 0 85 0;
#X connect 84 0 85 0;
#X connect 85 0 80 0;
#X connect 85 1 81 0;
#X connect 86 0 87 0;
#X connect 87 0 17 0;
#X connect 88 0 87 1;
#X connect 89 0 36 0;
#X connect 89 1 23 0;
#X connect 90 0 44 0;
#X connect 91 0 49 0;
#X connect 92 0 6 0;
